<?xml version="1.0" standalone="no"?>
<!DOCTYPE svg PUBLIC "-//W3C//DTD SVG 20010904//EN"
 "http://www.w3.org/TR/2001/REC-SVG-20010904/DTD/svg10.dtd">
<svg version="1.0" xmlns="http://www.w3.org/2000/svg"
 width="128.000000pt" height="128.000000pt" viewBox="0 0 128.000000 128.000000"
 preserveAspectRatio="xMidYMid meet">

<g transform="translate(0.000000,128.000000) scale(0.100000,-0.100000)"
fill="#000000" stroke="none">
<path d="M651 667 c-334 -335 -392 -397 -386 -416 16 -51 43 -28 438 367 325
325 388 393 385 413 -8 60 -34 39 -437 -364z"/>
<path d="M485 976 c-126 -36 -226 -90 -310 -167 -48 -44 -55 -68 -29 -93 25
-25 49 -19 104 28 65 56 169 111 246 131 69 18 206 20 270 4 45 -12 46 -11 85
27 l40 39 -53 19 c-71 25 -281 32 -353 12z"/>
<path d="M972 847 l-32 -33 72 -57 c40 -31 80 -57 89 -57 23 0 49 26 49 49 0
22 -116 131 -139 131 -4 0 -21 -15 -39 -33z"/>
<path d="M490 777 c-111 -38 -230 -119 -230 -157 0 -24 26 -50 51 -50 10 0 40
16 66 37 67 51 143 84 210 90 51 5 63 11 101 46 23 23 42 45 42 49 0 4 -39 8
-87 8 -64 0 -106 -7 -153 -23z"/>
<path d="M832 707 l-32 -33 67 -45 c37 -24 72 -48 78 -53 7 -5 24 -6 38 -2 38
9 46 50 16 82 -25 27 -110 84 -125 84 -6 0 -25 -15 -42 -33z"/>
<path d="M681 556 l-42 -43 39 -7 c22 -3 63 -22 92 -42 57 -39 93 -40 105 -4
11 34 -4 57 -58 93 -80 53 -87 53 -136 3z"/>
<path d="M490 571 c-52 -28 -90 -67 -90 -93 0 -19 10 -13 65 42 80 79 80 80
25 51z"/>
<path d="M574 386 c-37 -37 -43 -70 -20 -115 47 -90 186 -50 186 55 0 16 -12
38 -34 60 -46 46 -86 46 -132 0z"/>
</g>
</svg>
